<svg width="348" height="351" viewBox="0 0 348 351" fill="none" xmlns="http://www.w3.org/2000/svg">
<path d="M81.6218 188.565C81.6751 189.182 81.6507 189.89 81.5487 190.692L79.3186 190.531C79.3789 189.99 79.3898 189.497 79.3512 189.051C79.2501 187.882 78.7843 187.076 77.9538 186.634C77.1215 186.171 75.8764 186.011 74.2186 186.154L51.9337 188.081L51.6774 185.116L74.026 183.184C76.3214 182.985 78.1181 183.333 79.4159 184.227C80.7119 185.1 81.4472 186.546 81.6218 188.565Z" fill="white"/>
<path d="M51.5585 167.854L51.7979 164.92L73.4858 166.689L73.2464 169.623L51.5585 167.854Z" fill="white"/>
<path d="M72.3573 140.266L69.7636 148.608L75.4797 152.965L74.6056 155.777L56.0599 141.164L56.8674 138.566L80.439 137.015L79.5459 139.887L72.3573 140.266ZM70.0113 140.374L59.7285 140.897L67.9022 147.158L70.0113 140.374Z" fill="white"/>
<path d="M76.9302 100.851L94.953 113.045L93.5449 115.183L72.5061 115.785L78.8772 119.902L86.7224 125.21L85.0727 127.648L67.05 115.455L68.4845 113.335L89.5498 112.751L82.4366 108.131L75.2806 103.29L76.9302 100.851Z" fill="white"/>
<path d="M95.4148 98.3398L100.705 93.456L102.159 95.0313L96.8691 99.9152L95.4148 98.3398Z" fill="white"/>
<path d="M110.699 71.7093C112.894 70.3906 114.845 69.8898 116.554 70.2068C118.27 70.4946 119.639 71.4888 120.661 73.1893C121.705 74.9264 121.951 76.6202 121.4 78.2706C120.867 79.9101 119.504 81.3892 117.309 82.7078L113.497 84.9991L118.096 92.6515L115.572 94.168L104.364 75.517L110.699 71.7093ZM116.155 80.7879C118.917 79.1285 119.577 77.1012 118.138 74.7058C117.456 73.5721 116.572 72.9087 115.486 72.7156C114.388 72.5042 113.172 72.7996 111.837 73.6018L108.024 75.893L112.343 83.0791L116.155 80.7879Z" fill="white"/>
<path d="M150.803 76.4805L151.423 78.5998L138.615 82.3443L132.509 61.4586L144.702 57.8937L145.322 60.0129L135.954 62.7517L137.903 69.4167L146.042 67.0371L146.662 69.1564L138.522 71.536L140.821 79.3989L150.803 76.4805Z" fill="white"/>
<path d="M180.615 54.9228L180.648 76.6828L178.088 76.7187L165.774 59.6495L165.946 67.2332L165.96 76.7052L163.016 76.7097L162.983 54.9497L165.543 54.9458L177.857 72.047L177.684 63.5673L177.671 54.9273L180.615 54.9228Z" fill="white"/>
<path d="M213.207 74.1471L210.548 82.6702C209.602 82.9112 208.439 82.9844 207.061 82.8897C205.682 82.795 204.219 82.5063 202.672 82.0236C200.391 81.3122 198.622 80.2129 197.365 78.7259C196.108 77.2389 195.339 75.5467 195.06 73.6494C194.8 71.7584 194.975 69.8353 195.585 67.8802C196.195 65.9251 197.161 64.2599 198.484 62.8848C199.807 61.5096 201.435 60.5873 203.37 60.1179C205.304 59.6485 207.442 59.779 209.784 60.5095C211.148 60.9351 212.351 61.5561 213.393 62.3725C214.461 63.175 215.289 64.1036 215.876 65.1583L214.134 66.6597C213.692 65.7843 213.022 64.9944 212.124 64.2898C211.233 63.5649 210.228 63.0278 209.107 62.6784C207.397 62.1449 205.823 62.0675 204.386 62.4462C202.95 62.825 201.713 63.5677 200.675 64.6741C199.657 65.787 198.894 67.1581 198.386 68.7873C197.865 70.4573 197.697 72.0361 197.881 73.5237C198.065 75.0113 198.61 76.3098 199.515 77.419C200.441 78.5346 201.719 79.3465 203.348 79.8546C205.059 80.3882 206.67 80.6673 208.182 80.6919L210.488 73.2991L213.207 74.1471Z" fill="white"/>
<path d="M243.793 103.793L242.361 105.474L232.204 96.8191L246.318 80.2568L248.559 82.1662L235.877 97.048L243.793 103.793Z" fill="white"/>
<path d="M266.295 100.062L268.102 102.386L250.921 115.74L249.115 113.416L266.295 100.062Z" fill="white"/>
<path d="M288.715 131.029L289.729 133.793L258.395 145.289L257.381 142.525L288.715 131.029Z" fill="white"/>
<path d="M292.908 177.235C292.897 179.795 292.312 181.723 291.154 183.019C290.017 184.336 288.457 184.99 286.473 184.981C284.446 184.972 282.87 184.303 281.746 182.975C280.621 181.669 280.065 179.736 280.077 177.176L280.097 172.728L271.169 172.687L271.183 169.743L292.943 169.843L292.908 177.235ZM282.317 177.186C282.302 180.407 283.692 182.024 286.486 182.037C287.809 182.043 288.835 181.632 289.564 180.803C290.314 179.975 290.693 178.782 290.7 177.225L290.721 172.777L282.337 172.738L282.317 177.186Z" fill="white"/>
<path d="M266.465 204.118C267.118 201.953 268.158 200.239 269.586 198.976C271.028 197.739 272.693 196.982 274.582 196.705C276.47 196.427 278.415 196.59 280.417 197.194C282.419 197.797 284.12 198.733 285.52 200.002C286.94 201.277 287.9 202.825 288.398 204.646C288.911 206.494 288.841 208.5 288.188 210.665C287.535 212.831 286.488 214.531 285.046 215.768C283.618 217.031 281.96 217.801 280.071 218.079C278.203 218.362 276.279 218.205 274.297 217.608C272.275 216.999 270.554 216.057 269.133 214.782C267.713 213.507 266.746 211.946 266.234 210.098C265.735 208.276 265.813 206.283 266.465 204.118ZM268.671 204.783C268.203 206.335 268.171 207.774 268.574 209.098C268.997 210.429 269.776 211.578 270.911 212.543C272.066 213.516 273.471 214.251 275.126 214.75C276.78 215.248 278.347 215.409 279.827 215.231C281.306 215.053 282.593 214.516 283.688 213.62C284.776 212.745 285.551 211.542 286.013 210.01C286.481 208.457 286.506 207.006 286.089 205.654C285.665 204.324 284.886 203.175 283.751 202.209C282.617 201.243 281.222 200.511 279.567 200.012C277.913 199.514 276.336 199.35 274.836 199.522C273.356 199.7 272.072 200.227 270.984 201.102C269.91 202.004 269.139 203.231 268.671 204.783Z" fill="white"/>
<path d="M262.577 235.838L264.789 232.543L256.846 227.209L258.487 224.765L276.552 236.896L272.485 242.953C271.105 245.008 269.616 246.269 268.016 246.737C266.417 247.205 264.847 246.922 263.307 245.887C262.014 245.019 261.183 243.96 260.814 242.71C260.464 241.472 260.607 240.091 261.245 238.567L248.997 238.898L250.905 236.056L262.577 235.838ZM266.649 233.792L264.223 237.405C262.51 239.955 262.725 241.95 264.868 243.389C265.878 244.067 266.886 244.269 267.893 243.994C268.899 243.719 269.819 242.962 270.652 241.722L273.078 238.11L266.649 233.792Z" fill="white"/>
<path d="M242.52 271.52L248.092 266.76L235.413 251.918L237.651 250.006L250.33 264.847L255.902 260.087L257.357 261.791L243.975 273.223L242.52 271.52Z" fill="white"/>
<path d="M226.523 281.102L223.228 274.377L215.613 278.108L214.628 276.097L222.243 272.366L217.935 263.572L220.579 262.277L230.152 281.818L218.743 287.407L217.758 285.396L226.523 281.102Z" fill="white"/>
<path d="M189.599 272.698C191.824 272.297 193.824 272.447 195.597 273.147C197.353 273.872 198.783 275.013 199.886 276.57C200.99 278.128 201.727 279.935 202.097 281.993C202.466 284.051 202.403 285.991 201.907 287.814C201.415 289.658 200.471 291.215 199.073 292.485C197.659 293.78 195.839 294.628 193.613 295.028C191.387 295.428 189.396 295.265 187.64 294.541C185.867 293.841 184.429 292.712 183.325 291.155C182.226 289.618 181.493 287.832 181.126 285.795C180.753 283.716 180.812 281.755 181.304 279.911C181.796 278.067 182.75 276.497 184.164 275.203C185.562 273.933 187.373 273.098 189.599 272.698ZM190.006 274.965C188.411 275.252 187.114 275.875 186.116 276.835C185.122 277.816 184.451 279.031 184.105 280.48C183.762 281.951 183.744 283.536 184.05 285.237C184.356 286.938 184.923 288.407 185.753 289.645C186.582 290.884 187.644 291.787 188.939 292.356C190.212 292.93 191.636 293.075 193.211 292.791C194.807 292.505 196.112 291.869 197.127 290.884C198.121 289.904 198.792 288.689 199.138 287.239C199.484 285.79 199.505 284.215 199.199 282.514C198.893 280.813 198.324 279.333 197.491 278.074C196.661 276.836 195.61 275.93 194.336 275.357C193.045 274.809 191.602 274.678 190.006 274.965Z" fill="white"/>
<path d="M154.171 275.691L154.391 273.494L167.669 274.823L165.5 296.475L162.571 296.182L164.519 276.727L154.171 275.691Z" fill="white"/>
<path d="M137.8 291.573L134.991 290.691L141.508 269.93L144.316 270.812L137.8 291.573Z" fill="white"/>
<path d="M121.072 260.008C123.006 261.181 124.406 262.616 125.272 264.314C126.11 266.019 126.427 267.821 126.224 269.719C126.021 271.617 125.378 273.46 124.294 275.247C123.21 277.035 121.879 278.448 120.3 279.487C118.711 280.544 116.973 281.087 115.085 281.115C113.167 281.15 111.242 280.581 109.308 279.408C107.375 278.236 105.989 276.797 105.152 275.092C104.286 273.394 103.954 271.596 104.157 269.698C104.348 267.818 104.981 265.993 106.054 264.224C107.149 262.418 108.491 260.987 110.08 259.929C111.669 258.872 113.423 258.326 115.34 258.291C117.228 258.263 119.139 258.836 121.072 260.008ZM119.878 261.979C118.491 261.138 117.107 260.747 115.723 260.807C114.329 260.884 113.022 261.352 111.804 262.21C110.574 263.085 109.511 264.262 108.615 265.74C107.719 267.217 107.173 268.695 106.975 270.172C106.778 271.649 106.977 273.029 107.571 274.313C108.146 275.585 109.118 276.636 110.486 277.465C111.873 278.306 113.272 278.693 114.685 278.627C116.079 278.549 117.386 278.081 118.604 277.224C119.823 276.366 120.88 275.198 121.776 273.721C122.672 272.243 123.224 270.757 123.433 269.261C123.63 267.784 123.441 266.409 122.865 265.137C122.26 263.872 121.264 262.819 119.878 261.979Z" fill="white"/>
<path d="M73.2901 252.072L71.5243 249.717L98.2304 229.698L99.9962 232.054L73.2901 252.072Z" fill="white"/>
</svg>
