<svg width="71" height="67" viewBox="0 0 71 67" fill="none" xmlns="http://www.w3.org/2000/svg">
<path d="M13.8437 44.9821L13.2082 44.1378L18.5412 40.9006C19.0172 40.6117 19.4831 40.448 19.9388 40.4095C20.3945 40.3709 20.8205 40.448 21.2167 40.6407C21.613 40.8334 21.9632 41.1317 22.2673 41.5357C22.5543 41.917 22.7356 42.3013 22.8113 42.6886C22.8846 43.0773 22.8468 43.4408 22.6981 43.7791C22.5494 44.1174 22.2844 44.4022 21.9031 44.6337L21.2778 43.8029C21.4891 43.6747 21.6369 43.5139 21.7213 43.3204C21.8016 43.1262 21.8205 42.9163 21.7781 42.6908C21.7356 42.4652 21.6316 42.2423 21.4659 42.0222C21.283 41.7793 21.0729 41.6059 20.8355 41.502C20.5981 41.3981 20.3404 41.366 20.0625 41.4058C19.7805 41.4447 19.4852 41.5578 19.1768 41.745L13.8437 44.9821Z" fill="white"/>
<path d="M10.9147 38.4939L19.4748 36.7941L19.7856 37.8042L11.2254 39.504L10.9147 38.4939Z" fill="white"/>
<path d="M18.6569 33.3613L18.535 34.4625L10.2734 29.8766L10.3935 28.7923L19.3601 27.008L19.2382 28.1092L11.7 29.5222L11.6925 29.59L18.6569 33.3613ZM15.337 32.4075L15.8283 27.9687L16.7537 28.1191L16.2624 32.5579L15.337 32.4075Z" fill="white"/>
<path d="M17.085 16.6372L24.3039 21.5416L23.6881 22.3582L15.1568 22.3045L15.1054 22.3725L20.7734 26.2232L20.1371 27.067L12.9182 22.1626L13.534 21.346L22.0897 21.3957L22.141 21.3277L16.459 17.4673L17.085 16.6372Z" fill="white"/>
<path d="M29.713 20.0391L30.2181 20.8289L25.3406 23.2707L24.8355 22.4809L29.713 20.0391Z" fill="white"/>
<path d="M30.8935 20.604L29.4699 11.9937L32.4109 11.778C33.0937 11.728 33.672 11.809 34.1458 12.021C34.622 12.2301 34.999 12.533 35.2768 12.9296C35.5546 13.3262 35.7354 13.7782 35.8193 14.2855C35.9032 14.7929 35.8746 15.2616 35.7335 15.6918C35.5952 16.1218 35.3298 16.476 34.9371 16.7544C34.5439 17.0301 34.0087 17.1927 33.3315 17.2424L31.2236 17.3969L31.0706 16.472L33.1446 16.3199C33.6121 16.2856 33.9743 16.1782 34.2312 15.9977C34.4882 15.8172 34.6579 15.5863 34.7404 15.3051C34.8253 15.0208 34.8393 14.7063 34.7823 14.3616C34.7253 14.0168 34.6092 13.7133 34.4339 13.451C34.2614 13.1884 34.0194 12.9906 33.7077 12.8574C33.3956 12.7214 33.003 12.6708 32.5298 12.7055L30.6768 12.8413L31.9475 20.5268L30.8935 20.604Z" fill="white"/>
<path d="M37.363 21.0577L40.0134 12.7426L45.0082 14.4141L44.7235 15.3073L40.7309 13.9712L39.8353 16.7808L43.5693 18.0303L43.2846 18.9236L39.5506 17.674L38.6499 20.4998L42.7072 21.8576L42.4224 22.7508L37.363 21.0577Z" fill="white"/>
<path d="M54.8968 22.1368L48.4985 28.0721L47.7472 27.3783L49.2768 19.4919L49.2142 19.4341L44.1905 24.0942L43.4141 23.3773L49.8124 17.442L50.5638 18.1359L49.0341 26.0453L49.0968 26.1031L54.1329 21.4315L54.8968 22.1368Z" fill="white"/>
<path d="M56.9778 33.0065C57.2228 32.847 57.4284 32.6671 57.5947 32.4666C57.7648 32.2682 57.8914 32.0502 57.9745 31.8129C58.0586 31.5782 58.0957 31.3265 58.0856 31.0578C58.0756 30.789 58.0153 30.507 57.9048 30.2116C57.7236 29.7274 57.4296 29.3204 57.0227 28.9906C56.6158 28.6608 56.1168 28.4438 55.5258 28.3395C54.9348 28.2352 54.2734 28.2774 53.5417 28.4661C52.8099 28.6549 52.2366 28.9326 51.8218 29.2992C51.407 29.6659 51.146 30.0848 51.0387 30.5559C50.9314 31.027 50.9724 31.5154 51.1615 32.0209C51.3367 32.4892 51.5942 32.875 51.9339 33.1784C52.2774 33.4836 52.6762 33.6871 53.1305 33.7888C53.5885 33.8924 54.0761 33.8775 54.5933 33.7441L54.6408 34.0644L53.7209 31.6059L54.6287 31.3717L55.7934 34.4848L54.8857 34.719C54.1897 34.8985 53.5307 34.9109 52.9088 34.7562C52.2879 34.6042 51.7417 34.3133 51.2702 33.8835C50.8024 33.4556 50.4471 32.9171 50.2042 32.2678C49.9334 31.5441 49.8716 30.8628 50.0186 30.2238C50.1667 29.5875 50.508 29.0327 51.0428 28.5593C51.5785 28.0885 52.292 27.7381 53.1833 27.5083C53.8517 27.3358 54.4852 27.2673 55.0835 27.3026C55.6857 27.3398 56.2349 27.4695 56.7312 27.6916C57.2275 27.9137 57.6578 28.217 58.0218 28.6016C58.3859 28.9862 58.666 29.4405 58.8621 29.9647C59.0234 30.3958 59.1063 30.8149 59.1109 31.2222C59.1192 31.6314 59.0557 32.014 58.9204 32.3698C58.7888 32.7276 58.5906 33.0486 58.326 33.3327C58.064 33.6162 57.742 33.848 57.36 34.0283L56.9778 33.0065Z" fill="white"/>
<path d="M50.3907 40.2671L58.3452 43.8575L57.9009 44.8164L50.8009 41.6117L49.0954 45.2926L48.2409 44.9069L50.3907 40.2671Z" fill="white"/>
<path d="M52.568 51.8479L46.1336 45.9519L46.9052 45.2297L53.3396 51.1257L52.568 51.8479Z" fill="white"/>
<path d="M36.4603 47.4786L41.5809 57.3045L40.668 57.4222L35.5474 47.5963L36.4603 47.4786Z" fill="white"/>
</svg>
